<?xml version="1.0" standalone="no"?>
<!DOCTYPE svg PUBLIC "-//W3C//DTD SVG 20010904//EN"
 "http://www.w3.org/TR/2001/REC-SVG-20010904/DTD/svg10.dtd">
<svg version="1.0" xmlns="http://www.w3.org/2000/svg"
 width="50.000000pt" height="50.000000pt" viewBox="0 0 50.000000 50.000000"
 preserveAspectRatio="xMidYMid meet">

<g transform="translate(0.000000,50.000000) scale(0.100000,-0.100000)"
fill="#18191a" stroke="none">
<path d="M7 494 c-4 -4 -7 -20 -7 -36 l0 -28 221 0 220 0 -3 33 -3 32 -211 3
c-115 1 -213 -1 -217 -4z"/>
<path d="M0 250 l0 -160 149 0 149 0 12 -30 c14 -33 55 -60 90 -60 52 0 100
49 100 101 0 27 -26 75 -45 82 -12 5 -15 27 -15 117 l0 110 -220 0 -220 0 0
-160z m110 90 c0 -5 -9 -10 -20 -10 -11 0 -20 5 -20 10 0 6 9 10 20 10 11 0
20 -4 20 -10z m260 0 c0 -6 -45 -10 -115 -10 -70 0 -115 4 -115 10 0 6 45 10
115 10 70 0 115 -4 115 -10z m-260 -50 c0 -5 -9 -10 -20 -10 -11 0 -20 5 -20
10 0 6 9 10 20 10 11 0 20 -4 20 -10z m260 0 c0 -6 -45 -10 -115 -10 -70 0
-115 4 -115 10 0 6 45 10 115 10 70 0 115 -4 115 -10z m-260 -50 c0 -5 -9 -10
-20 -10 -11 0 -20 5 -20 10 0 6 9 10 20 10 11 0 20 -4 20 -10z m260 0 c0 -6
-45 -10 -115 -10 -70 0 -115 4 -115 10 0 6 45 10 115 10 70 0 115 -4 115 -10z
m-260 -50 c0 -5 -9 -10 -20 -10 -11 0 -20 5 -20 10 0 6 9 10 20 10 11 0 20 -4
20 -10z m190 0 c0 -6 -33 -10 -80 -10 -47 0 -80 4 -80 10 0 6 33 10 80 10 47
0 80 -4 80 -10z m155 -35 c50 -49 15 -135 -55 -135 -41 0 -80 39 -80 80 0 70
86 105 135 55z"/>
<path d="M390 130 c0 -13 -7 -20 -20 -20 -11 0 -20 -4 -20 -10 0 -5 9 -10 20
-10 13 0 20 -7 20 -20 0 -11 5 -20 10 -20 6 0 10 9 10 20 0 13 7 20 20 20 11
0 20 5 20 10 0 6 -9 10 -20 10 -13 0 -20 7 -20 20 0 11 -4 20 -10 20 -5 0 -10
-9 -10 -20z"/>
</g>
</svg>
